<svg width="331" height="381" viewBox="0 0 331 381" fill="none" xmlns="http://www.w3.org/2000/svg">
<path d="M53.5733 259.532C63.134 173.489 117.779 102.372 191.82 68.111C174.403 39.7147 150.77 16.6427 123.461 0C21.1616 48.7679 -27.1055 169.227 15.4853 276.011C25.9441 302.253 41.0636 325.215 59.385 344.565C52.4213 316.944 50.3906 288.176 53.5733 259.532Z" fill="#11A800"/>
<path d="M301.727 69.394C188.513 64.2654 89.2326 147.821 76.5339 262.084C71.9135 303.699 79.4234 343.856 96.1836 379.074C97.7716 379.289 99.3276 379.543 100.909 379.718C214.338 392.319 316.502 310.586 329.102 197.163C334.237 150.939 323.7 106.584 301.727 69.394ZM191.2 256.936C155.065 312.909 121.463 355.5 116.151 352.077C110.854 348.647 135.859 300.504 172.019 244.537C208.167 188.565 241.771 145.973 247.075 149.396C252.387 152.827 227.369 200.97 191.2 256.936Z" fill="#23F70C"/>
</svg>
