<svg width="35" height="19" viewBox="0 0 35 19" fill="none"
    xmlns="http://www.w3.org/2000/svg">
    <path d="M7.272 18.956C5.944 18.956 4.792 18.708 3.816 18.212C2.856 17.7 2.112 16.964 1.584 16.004C1.072 15.044 0.816 13.876 0.816 12.5V11.612H4.704V12.716C4.704 13.484 4.928 14.108 5.376 14.588C5.84 15.052 6.472 15.284 7.272 15.284C8.056 15.284 8.672 15.052 9.12 14.588C9.584 14.108 9.816 13.484 9.816 12.716V3.932H13.752V12.5C13.752 13.876 13.488 15.044 12.96 16.004C12.448 16.964 11.704 17.7 10.728 18.212C9.768 18.708 8.616 18.956 7.272 18.956ZM2.856 4.412V0.98H13.752V4.412H2.856ZM17.3899 18.5V0.98H23.8459L30.4459 15.308H31.2619L30.7819 15.74V0.98H34.4779V18.5H27.9739L21.3739 4.172H20.5579L21.0379 3.74V18.5H17.3899Z" fill="#5F22DB"/>
</svg>
