<svg width="39" height="218" viewBox="0 0 39 218" fill="none" xmlns="http://www.w3.org/2000/svg">
<line x1="19.5" y1="179" x2="19.5" y2="-2.18557e-08" stroke="#939393"/>
<path d="M19.5 218C18.423 218 17.55 217.127 17.55 216.05V214.1C17.55 213.023 18.423 212.15 19.5 212.15C20.5769 212.15 21.45 213.023 21.45 214.1V216.05C21.45 217.127 20.5769 218 19.5 218Z" fill="white" stroke="#CBCBCB" stroke-width="33.3333"/>
<mask id="path-3-inside-1_233_42" fill="white">
<path fill-rule="evenodd" clip-rule="evenodd" d="M4.4712 213.529C3.70973 212.767 3.70973 211.533 4.4712 210.771L6.4212 208.821C7.18268 208.06 8.41742 208.06 9.17889 208.821C9.94037 209.583 9.94037 210.817 9.17889 211.579L7.22889 213.529C6.46742 214.29 5.23268 214.29 4.4712 213.529Z"/>
</mask>
<path fill-rule="evenodd" clip-rule="evenodd" d="M4.4712 213.529C3.70973 212.767 3.70973 211.533 4.4712 210.771L6.4212 208.821C7.18268 208.06 8.41742 208.06 9.17889 208.821C9.94037 209.583 9.94037 210.817 9.17889 211.579L7.22889 213.529C6.46742 214.29 5.23268 214.29 4.4712 213.529Z" fill="white"/>
<path d="M4.4712 213.529L-19.0999 237.098L-19.0996 237.098L4.4712 213.529ZM4.4712 210.771L-19.099 187.201L-19.0999 187.202L4.4712 210.771ZM6.4212 208.821L29.9914 232.391L29.992 232.391L6.4212 208.821ZM9.17889 208.821L32.75 185.252L32.7497 185.252L9.17889 208.821ZM9.17889 211.579L32.7491 235.149L32.75 235.148L9.17889 211.579ZM7.22889 213.529L-16.3413 189.959L-16.3419 189.959L7.22889 213.529ZM28.0423 189.96C40.2971 202.215 40.2971 222.085 28.0423 234.34L-19.0999 187.202C-32.8777 200.981 -32.8777 223.319 -19.0999 237.098L28.0423 189.96ZM28.0414 234.341L29.9914 232.391L-17.149 185.251L-19.099 187.201L28.0414 234.341ZM29.992 232.391C17.7359 244.648 -2.1358 244.648 -14.3919 232.391L32.7497 185.252C18.9706 171.472 -3.37053 171.472 -17.1496 185.252L29.992 232.391ZM-14.3922 232.39C-26.647 220.135 -26.647 200.265 -14.3922 188.01L32.75 235.148C46.5278 221.369 46.5278 199.031 32.75 185.252L-14.3922 232.39ZM-14.3913 188.009L-16.3413 189.959L30.7991 237.099L32.7491 235.149L-14.3913 188.009ZM-16.3419 189.959C-4.0858 177.702 15.7859 177.702 28.042 189.959L-19.0996 237.098C-5.32053 250.878 17.0206 250.878 30.7997 237.098L-16.3419 189.959Z" fill="#CBCBCB" mask="url(#path-3-inside-1_233_42)"/>
<path d="M5.8501 198.5C5.8501 199.577 4.97708 200.45 3.9001 200.45H1.9501C0.873113 200.45 9.82285e-05 199.577 9.82285e-05 198.5C9.82285e-05 197.423 0.873113 196.55 1.9501 196.55H3.9001C4.97708 196.55 5.8501 197.423 5.8501 198.5Z" fill="white" stroke="#CBCBCB" stroke-width="33.3333"/>
<path d="M39 198.5C39 199.577 38.1269 200.45 37.05 200.45H35.1C34.0231 200.45 33.15 199.577 33.15 198.5C33.15 197.423 34.0231 196.55 35.1 196.55H37.05C38.1269 196.55 39 197.423 39 198.5Z" fill="white" stroke="#CBCBCB" stroke-width="33.3333"/>
<path d="M32.579 208.821L34.5289 210.771L33.1501 212.15L32.1509 211.151L31.2002 210.2M32.579 208.821L32.579 208.821M32.579 208.821L31.2002 210.2M32.579 208.821L29.8213 211.579M31.2002 210.2L32.579 208.821M31.2002 210.2L29.8213 211.579M32.579 208.821C31.8174 208.06 30.5828 208.06 29.8213 208.821L31.2001 210.2L32.579 208.821ZM29.8213 211.579L31.7712 213.529M29.8213 211.579L31.7712 213.529M31.7712 213.529L33.15 212.15M31.7712 213.529L33.15 212.15M33.15 212.15L32.1509 211.151L33.15 212.15ZM31.7928 213.507L31.7712 213.529C32.5327 214.29 33.7674 214.29 34.5289 213.529L33.1501 212.15L34.529 213.529C35.2905 212.767 35.2905 211.533 34.529 210.771M34.529 210.771L34.5074 210.793L34.529 210.771ZM29.8212 208.821L31.2001 210.2L29.8212 211.579C29.0597 210.817 29.0597 209.583 29.8212 208.821Z" fill="white" stroke="#CBCBCB" stroke-width="33.3333"/>
<path d="M16.1149 194.866C16.5325 194.476 17.0173 194.158 17.55 193.931C17.9422 193.763 18.3605 193.645 18.797 193.583C19.0266 193.55 19.2613 193.533 19.5 193.533C19.7386 193.533 19.9733 193.55 20.2029 193.583C20.6394 193.645 21.0577 193.763 21.45 193.931C21.9826 194.158 22.4674 194.476 22.885 194.866C22.421 195.055 21.9417 195.213 21.45 195.338C21.0423 195.441 20.6261 195.52 20.2029 195.576C19.9706 195.606 19.7362 195.629 19.5 195.644L16.1149 194.866ZM16.1149 194.866C16.5788 195.055 17.0582 195.213 17.55 195.338C17.9576 195.441 18.3738 195.52 18.797 195.576C19.0293 195.606 19.2637 195.629 19.4999 195.644L16.1149 194.866ZM15.9501 201.974C15.95 201.974 15.9499 201.974 15.9499 201.974L15.9501 201.974Z" fill="white" stroke="#CBCBCB" stroke-width="33.3333"/>
</svg>
