<svg width="128" height="20" viewBox="0 0 128 20" fill="none" xmlns="http://www.w3.org/2000/svg">
<g clip-path="url(#clip0_246_3141)">
<path d="M26.2625 0.860082C26.0324 0.863504 25.8081 0.932714 25.6162 1.05954C25.4242 1.18636 25.2725 1.36549 25.179 1.57576L21.3 9.07047L27.7609 6.06115L27.4851 2.0479C27.4828 1.88963 27.4494 1.73335 27.3867 1.58799C27.3241 1.44263 27.2334 1.31105 27.1199 1.20074C27.0063 1.09044 26.8722 1.00358 26.7251 0.945133C26.578 0.886682 26.4208 0.857781 26.2625 0.860082Z" fill="url(#paint0_linear_246_3141)"/>
<path d="M14.8391 12.0375L15.0875 16.0508C15.0917 16.3253 15.1894 16.5902 15.3646 16.8016C15.5398 17.013 15.7819 17.1583 16.0509 17.2134C16.3199 17.2684 16.5996 17.23 16.8438 17.1045C17.0879 16.9789 17.2819 16.7738 17.3936 16.5229L21.3 9.02823L14.8391 12.0375Z" fill="url(#paint1_linear_246_3141)"/>
<path d="M14.4737 1.19059C14.4707 0.936716 14.3876 0.69028 14.2362 0.486438C14.0849 0.282596 13.873 0.131761 13.6308 0.0554511C13.3887 -0.0208591 13.1286 -0.0187467 12.8877 0.0614869C12.6468 0.141721 12.4375 0.295977 12.2894 0.50225L2.10099 14.3486L0.749162 16.175C0.590976 16.3918 0.509493 16.6551 0.517577 16.9233C0.525661 17.1916 0.622851 17.4495 0.793803 17.6563C0.964756 17.8632 1.19973 18.0072 1.46164 18.0656C1.72355 18.1241 1.99747 18.0937 2.24015 17.9791L14.839 12.0375L14.7297 8.76482L14.4737 1.19059Z" fill="url(#paint2_linear_246_3141)"/>
<path d="M41.9676 0.701062C41.9006 0.556979 41.8057 0.427566 41.6885 0.320272C41.5713 0.212978 41.4341 0.129919 41.2846 0.0758761C41.1352 0.0218329 40.9766 -0.00212823 40.8179 0.00537153C40.6591 0.0128713 40.5035 0.0516839 40.3598 0.119576L34.2443 3.00464L27.7609 6.06117L27.8703 9.3339L28.1461 16.9032C28.1469 17.159 28.2292 17.408 28.3809 17.614C28.5327 17.82 28.7461 17.9724 28.9902 18.049C29.2343 18.1257 29.4965 18.1227 29.7388 18.0404C29.9811 17.9582 30.1909 17.8009 30.3379 17.5915L41.8408 1.9361L41.8558 1.91622C41.9804 1.74174 42.0564 1.53728 42.076 1.32377C42.0957 1.11026 42.0583 0.895357 41.9676 0.701062Z" fill="url(#paint3_linear_246_3141)"/>
<path d="M58.1399 12.2165C57.7994 13.8367 56.3358 15.5737 53.7439 15.5737H48.7267L51.2117 3.83212H55.8636C57.9609 3.83212 59.0345 5.0945 58.6592 6.86629C58.4729 7.73603 57.8914 8.91143 56.5296 9.30406C57.9883 9.55753 58.4306 10.887 58.1399 12.2165ZM55.8065 11.968C55.9605 11.2225 55.635 10.477 54.5118 10.477H52.1759L51.5472 13.4763H53.8458C54.2972 13.4996 54.7422 13.3617 55.1014 13.0873C55.4605 12.8128 55.7104 12.4196 55.8065 11.9779V11.968ZM53.1475 5.91951L52.6033 8.50141H54.7503C55.4958 8.50141 56.0624 8.00441 56.2413 7.20673C56.3954 6.49106 56.1395 5.92945 55.3045 5.92945L53.1475 5.91951Z" fill="white"/>
<path d="M67.8189 12.3183H61.8226C61.8723 13.2403 62.5035 13.7497 63.577 13.7497C64.4155 13.7431 65.2222 13.4282 65.8433 12.865L66.8821 14.1697C65.8457 15.1725 64.4575 15.7292 63.0154 15.7203C60.5777 15.7203 59.1289 14.0504 59.6582 11.5952C59.9077 10.4214 60.5503 9.36784 61.4797 8.60873C62.4092 7.84963 63.5698 7.43043 64.7698 7.42044C67.0361 7.42044 68.552 9.02326 68.0426 11.4585C67.9904 11.6847 67.9233 11.9605 67.8189 12.3183ZM65.9278 10.8696C66.0645 9.93276 65.401 9.37861 64.3946 9.37861C63.91 9.36717 63.4335 9.50377 63.0286 9.77016C62.6237 10.0366 62.3096 10.4201 62.1283 10.8696H65.9278Z" fill="white"/>
<path d="M78.7951 7.63166L77.1078 15.5836H74.8713L75.0775 14.5896C74.3299 15.3199 73.327 15.73 72.2819 15.7327C70.2368 15.7327 68.7035 14.1473 69.2478 11.5902C69.792 9.03319 71.9812 7.45026 74.0363 7.45026C74.9583 7.45026 75.9622 7.7907 76.3548 8.59335L76.5586 7.63663L78.7951 7.63166ZM75.6416 11.5853C75.915 10.3602 75.0626 9.54261 74.0214 9.54261C73.4375 9.56062 72.8757 9.77044 72.423 10.1397C71.9702 10.5089 71.6517 11.0169 71.5165 11.5853C71.268 12.7458 72.0285 13.6478 73.1541 13.6478C73.7382 13.6266 74.2989 13.4128 74.7488 13.0397C75.1987 12.6667 75.5126 12.1553 75.6416 11.5853Z" fill="white"/>
<path d="M85.3554 9.35375H83.6681L82.356 15.5662H80.1196L81.4316 9.35375H79.9879L80.3606 7.63166H81.8094L82.4231 4.72672H84.6596L84.0483 7.63912H85.7356L85.3554 9.35375Z" fill="white"/>
<path d="M95.017 11.5853C94.4703 14.1423 92.2835 15.7277 90.2459 15.7277C89.3413 15.7277 88.32 15.3873 87.9274 14.5846L86.8886 19.4751H84.6522L87.1744 7.63166H89.4109L89.2047 8.58838C89.5708 8.21981 90.0064 7.92748 90.4863 7.72829C90.9661 7.5291 91.4807 7.427 92.0003 7.42789C94.0454 7.42789 95.5612 9.03071 95.017 11.5853ZM92.7333 11.5853C92.9818 10.4273 92.2562 9.52522 91.1305 9.52522C90.5447 9.54587 89.982 9.7588 89.5293 10.1311C89.0766 10.5035 88.759 11.0145 88.6256 11.5853C88.5578 11.8318 88.5493 12.0908 88.601 12.3412C88.6526 12.5916 88.7628 12.8262 88.9226 13.0257C89.0824 13.2253 89.2872 13.3841 89.5202 13.4892C89.7533 13.5943 90.0079 13.6427 90.2633 13.6304C90.8441 13.614 91.4028 13.4037 91.8504 13.0331C92.298 12.6625 92.6088 12.1529 92.7333 11.5853Z" fill="white"/>
<path d="M105.31 7.63168L103.623 15.5836H101.386L101.659 14.289C101.098 15.3277 99.7335 15.7799 98.9508 15.7799C96.8708 15.7799 96.0707 14.4008 96.6 12.0152L97.5368 7.65156H99.7733L98.8862 11.7766C98.6377 13.0191 99.2614 13.5832 100.029 13.5832C100.797 13.5832 101.903 13.1558 102.211 11.7245L103.078 7.65156L105.31 7.63168Z" fill="white"/>
<path d="M108.443 3.3898H110.68L108.105 15.5662H105.869L108.443 3.3898Z" fill="white"/>
<path d="M110.387 13.0166H112.482C112.397 13.4788 112.67 13.9709 113.453 13.9709C114.102 13.9709 114.663 13.7 114.765 13.2403C114.835 12.8974 114.596 12.7284 114.032 12.5743L113.038 12.3258C111.112 11.7816 111.078 10.6385 111.266 9.80355C111.515 8.57846 113.038 7.43536 114.877 7.43536C116.326 7.43536 117.876 8.15104 117.469 10.0272H115.324C115.426 9.4979 115.051 9.20716 114.522 9.20716C113.992 9.20716 113.55 9.45566 113.466 9.87313C113.381 10.2906 113.687 10.4347 114.097 10.554L115.339 10.8945C117.146 11.4064 117.131 12.5992 116.994 13.2477C116.636 14.9177 114.758 15.7327 113.125 15.7327C111.492 15.7327 110.029 14.7735 110.387 13.0166Z" fill="white"/>
<path d="M126.798 12.3183H120.791C120.841 13.2403 121.472 13.7497 122.546 13.7497C123.384 13.7431 124.191 13.4282 124.812 12.865L125.858 14.1697C124.822 15.1729 123.434 15.7297 121.992 15.7203C119.554 15.7203 118.105 14.0504 118.634 11.5952C118.884 10.4214 119.526 9.36784 120.456 8.60873C121.385 7.84963 122.546 7.43043 123.746 7.42044C126.012 7.42044 127.528 9.02326 127.019 11.4585C126.967 11.6847 126.899 11.9605 126.798 12.3183ZM124.904 10.8696C125.041 9.93276 124.377 9.37861 123.371 9.37861C122.886 9.36717 122.41 9.50377 122.005 9.77016C121.6 10.0366 121.286 10.4201 121.104 10.8696H124.904Z" fill="white"/>
</g>
<defs>
<linearGradient id="paint0_linear_246_3141" x1="22.3337" y1="8.6182" x2="27.6442" y2="2.40574" gradientUnits="userSpaceOnUse">
<stop offset="0.24" stop-color="#FF7B23"/>
<stop offset="0.78" stop-color="#FF5623"/>
</linearGradient>
<linearGradient id="paint1_linear_246_3141" x1="15.2242" y1="15.3625" x2="20.5421" y2="9.14254" gradientUnits="userSpaceOnUse">
<stop offset="0.24" stop-color="#FF7B23"/>
<stop offset="0.78" stop-color="#FF5623"/>
</linearGradient>
<linearGradient id="paint2_linear_246_3141" x1="4.01443" y1="17.4399" x2="15.8827" y2="3.5563" gradientUnits="userSpaceOnUse">
<stop offset="0.24" stop-color="#FF7B23"/>
<stop offset="0.78" stop-color="#FF5623"/>
</linearGradient>
<linearGradient id="paint3_linear_246_3141" x1="27.3708" y1="13.7895" x2="39.2316" y2="-0.0841935" gradientUnits="userSpaceOnUse">
<stop offset="0.24" stop-color="#FF7B23"/>
<stop offset="0.78" stop-color="#FF5623"/>
</linearGradient>
<clipPath id="clip0_246_3141">
<rect width="126.6" height="19.4699" fill="white" transform="translate(0.518066 0.00524902)"/>
</clipPath>
</defs>
</svg>
