<svg width="98" height="32" viewBox="0 0 98 32" fill="none" xmlns="http://www.w3.org/2000/svg">
<g id="gigeasy 2" clip-path="url(#clip0_246_3158)">
<path id="Vector" d="M21.5277 9.84956V20.5356C21.5277 21.4187 20.8118 22.1346 19.9287 22.1346H19.8949C19.0118 22.1346 18.2959 21.4187 18.2959 20.5356V9.84956C18.2959 8.96646 19.0118 8.25059 19.8949 8.25059H19.9287C20.8118 8.25059 21.5277 8.96646 21.5277 9.84956ZM19.3341 0.502933C20.9964 0.116952 22.3075 1.42806 21.9214 3.0907C21.7582 3.79391 21.1926 4.35933 20.4894 4.52244C18.8268 4.90774 17.5165 3.59663 17.9021 1.93494C18.0653 1.23159 18.6309 0.666173 19.3341 0.502933Z" fill="#3E8FCA"/>
<path id="Vector_2" d="M52.5949 3.30399H46.9886C46.1143 3.30399 45.4056 4.01264 45.4056 4.88699V7.29436C45.4056 8.16871 46.1143 8.87737 46.9886 8.87737H52.3311C53.2053 8.87737 53.9141 9.58615 53.9141 10.4603C53.9141 11.3346 53.2053 12.0433 52.3311 12.0433H46.9886C46.1143 12.0433 45.4056 12.752 45.4056 13.6262V17.3856C45.4056 18.2599 46.1143 18.9686 46.9886 18.9686H52.5949C53.4692 18.9686 54.1779 19.6773 54.1779 20.5516C54.1779 21.4259 53.4692 22.1346 52.5949 22.1346H43.625C42.7508 22.1346 42.042 21.4259 42.042 20.5516V1.721C42.042 0.846792 42.7508 0.138138 43.625 0.138138H52.5949C53.4692 0.138138 54.1779 0.846792 54.1779 1.721C54.1779 2.59534 53.4692 3.30399 52.5949 3.30399Z" fill="#3E8FCA"/>
<path id="Vector_3" d="M80.8704 11.2324C80.3435 11.5788 79.6647 11.5371 79.1608 11.1582C78.8272 10.9076 78.3982 10.7242 77.859 10.7242C77.3974 10.7242 77.0675 10.889 76.8699 11.0867C76.7048 11.2516 76.5728 11.5156 76.5728 11.8124C76.5728 12.1749 76.738 12.4058 77.0347 12.6038C77.2326 12.7357 77.4305 12.8018 78.123 13.1643L79.7718 13.989C80.4975 14.3515 81.1899 14.7144 81.7176 15.2749C82.4761 16.0337 82.74 16.891 82.74 17.8473C82.74 19.1005 82.2783 20.1889 81.5198 21.0133C80.4314 22.2005 79.0793 22.5633 77.6284 22.5633C76.738 22.5633 75.6165 22.4314 74.6274 21.6728C74.2724 21.4065 73.9437 21.0673 73.6596 20.6848C73.109 19.9436 73.3755 18.8822 74.2097 18.486C74.8569 18.1786 75.6141 18.3969 76.041 18.9723C76.1074 19.0616 76.1752 19.1392 76.2431 19.1995C76.4409 19.3975 76.9027 19.7271 77.6612 19.7271C78.1557 19.7271 78.6836 19.562 78.9806 19.2654C79.2441 19.0015 79.4419 18.5728 79.4419 18.1772C79.4419 17.7814 79.31 17.4515 79.0133 17.1219C78.6175 16.7261 78.1557 16.4952 77.6284 16.2644L76.4409 15.7038C75.8145 15.4068 75.056 15.0443 74.5283 14.5166C73.8031 13.824 73.5391 13.0656 73.5391 12.1749C73.5391 11.0538 73.9678 9.96571 74.6933 9.20706C75.3199 8.54756 76.375 7.88806 78.0898 7.88806C79.0793 7.88806 79.8709 8.08574 80.6622 8.61346C80.7708 8.6833 80.8885 8.76594 81.0116 8.86302C81.7872 9.47514 81.7125 10.6787 80.8869 11.2215L80.8704 11.2324Z" fill="#3E8FCA"/>
<path id="Vector_4" d="M88.2036 19.2205L83.821 10.5769C83.3854 9.46383 84.3472 8.25061 85.5321 8.25061C86.2167 8.25061 86.7033 8.59984 86.9716 9.15014L89.0625 13.4364C89.6454 14.6314 91.3463 14.6369 91.9371 13.4458L94.0692 9.14675C94.3414 8.59793 94.9012 8.25061 95.5137 8.25061C96.7129 8.25061 97.487 9.5202 96.9373 10.5862L87.5407 28.8186C87.2662 29.3517 86.7167 29.6866 86.1171 29.6866C84.9121 29.6866 84.1387 28.4064 84.6991 27.3397L88.193 20.69C88.4342 20.2308 88.4382 19.6831 88.2036 19.2205Z" fill="#3E8FCA"/>
<path id="Vector_5" d="M8.66507 19.2839C5.57368 19.6765 2.96237 17.0652 3.35502 13.9741C3.62268 11.8668 5.32399 10.165 7.43116 9.89692C10.5228 9.50335 13.1351 12.1154 12.742 15.2074C12.4741 17.3148 10.7724 19.0163 8.66507 19.2839ZM14.3969 9.85745C15.0508 9.85745 15.5809 9.32745 15.5809 8.67353V8.2591C15.5809 7.37576 14.8649 6.65976 13.9815 6.65976H8.25432C4.21084 6.65976 0.448929 9.94038 0.141642 13.9722C-0.2344 18.9067 3.93596 22.9939 8.89598 22.4767C12.5024 22.1007 15.4447 19.2287 15.9113 15.6328C16.1934 13.4583 15.5766 11.4359 14.3969 9.85745Z" fill="#3E8FCA"/>
<path id="Vector_6" d="M8.04889 31.2646C4.36989 31.2646 1.26789 28.7465 0.37612 25.3435C0.110086 24.3285 0.874423 23.3341 1.92372 23.3341C2.66259 23.3341 3.28534 23.8457 3.47676 24.5594C4.01795 26.5771 5.86262 28.0668 8.04889 28.0668C10.2347 28.0668 12.0794 26.5771 12.6206 24.5594C12.8121 23.8457 13.4348 23.3341 14.1737 23.3341C15.223 23.3341 15.9873 24.3285 15.7214 25.3435C14.8295 28.7465 11.7277 31.2646 8.04889 31.2646Z" fill="#3E8FCA"/>
<path id="Vector_7" d="M31.8855 19.3232C29.2757 19.3232 27.1526 17.2001 27.1526 14.5904C27.1526 11.9806 29.2757 9.85745 31.8855 9.85745C34.4954 9.85745 36.6184 11.9806 36.6184 14.5904C36.6184 17.2001 34.4954 19.3232 31.8855 19.3232ZM38.234 9.85745C38.8878 9.85745 39.4176 9.32758 39.4176 8.6738V8.26154C39.4176 7.37685 38.7006 6.65976 37.8159 6.65976H32.1042C27.7436 6.65976 24.0341 10.086 23.9561 14.4458C23.8717 19.1656 27.9331 22.9779 32.7342 22.4765C36.3403 22.0999 39.2823 19.2281 39.7485 15.6324C40.0305 13.4581 39.4137 11.4357 38.234 9.85745Z" fill="#3E8FCA"/>
<path id="Vector_8" d="M31.8855 31.2646C28.2065 31.2646 25.1045 28.7465 24.2128 25.3435C23.9467 24.3285 24.711 23.3341 25.7603 23.3341C26.4993 23.3341 27.122 23.8458 27.3134 24.5594C27.8546 26.5771 29.6993 28.0668 31.8855 28.0668C34.0718 28.0668 35.9165 26.5771 36.4576 24.5594C36.6491 23.8458 37.2719 23.3341 38.0107 23.3341C39.06 23.3341 39.8244 24.3285 39.5583 25.3435C38.6666 28.7465 35.5646 31.2646 31.8855 31.2646Z" fill="#3E8FCA"/>
<path id="Vector_9" d="M63.9756 19.2836C60.8831 19.6778 58.27 17.0647 58.664 13.9722C58.9324 11.865 60.6341 10.1639 62.7414 9.89654C65.8322 9.50434 68.4428 12.1151 68.0509 15.206C67.7836 17.3131 66.0826 19.015 63.9756 19.2836ZM64.4538 6.73371C59.3083 6.0399 54.9368 10.3185 55.4711 15.4384C55.8475 19.0447 58.7193 21.9868 62.315 22.4531C64.4894 22.7351 66.5118 22.1183 68.0901 20.9387C68.0901 21.7213 68.7244 22.3556 69.5072 22.3556H69.7485C70.5986 22.3556 71.2878 21.6666 71.2878 20.8165C71.2878 19.2712 71.2878 16.8271 71.2878 14.743C71.2878 10.7565 68.4045 7.2666 64.4538 6.73371Z" fill="#3E8FCA"/>
</g>
<defs>
<clipPath id="clip0_246_3158">
<rect width="97" height="31.3824" fill="white" transform="translate(0.118042 0.0927582)"/>
</clipPath>
</defs>
</svg>
